# xmcd
#
# Track frame offsets:
#	150
#	18808
#	40079
#	55316
#	75744
#	94657
#	113535
#	133180
#	149911
#	169149
#	189739
#	207151
#	223528
#
# Disc length: 3219 seconds
#
# Revision: 0
# Processed by: cddbd v1.5.2PL0 Copyright (c) Steve Scherf et al.
# Submitted via: EasyCDDAExtractor 10.0.6.1
#
DISCID=b80c910d
DTITLE=제이(J) - 6_Inlove Again (Sponge-2007)
DYEAR=2007
DGENRE=Ballad
TTITLE0=Inlove Again
TTITLE1=사랑, 눈물감기
TTITLE2=Kiss Me
TTITLE3=열흘만
TTITLE4=거짓말이잖아
TTITLE5=술과 순정 (Feat. 은지원)
TTITLE6=Ghost
TTITLE7=수천번 잠들고 깨어나도
TTITLE8=시간은...다 닳게 하니까
TTITLE9=눈부신 날에 (Duet. 알렉스)
TTITLE10=가는비
TTITLE11=눈물로 (Duet. 이정)
TTITLE12=8318 (Duet. 정훈희)
EXTD=
EXTT0=
EXTT1=
EXTT2=
EXTT3=
EXTT4=
EXTT5=
EXTT6=
EXTT7=
EXTT8=
EXTT9=
EXTT10=
EXTT11=
EXTT12=
PLAYORDER=
